<?xml version="1.0" standalone="no"?>
<!DOCTYPE svg PUBLIC "-//W3C//DTD SVG 20010904//EN"
 "http://www.w3.org/TR/2001/REC-SVG-20010904/DTD/svg10.dtd">
<svg version="1.0" xmlns="http://www.w3.org/2000/svg"
 width="601.000000pt" height="601.000000pt" viewBox="0 0 601.000000 601.000000"
 preserveAspectRatio="xMidYMid meet">
<metadata>
Created by potrace 1.11, written by Peter Selinger 2001-2013
</metadata>
<g transform="translate(0.000000,601.000000) scale(0.100000,-0.100000)"
fill="#000000" stroke="none">
<path d="M1269 5218 c-123 -144 -232 -272 -241 -283 -16 -21 -12 -26 245 -275
310 -301 857 -831 977 -947 l85 -83 120 119 120 120 133 -127 134 -127 -144
-150 c-133 -141 -548 -580 -665 -706 l-52 -55 486 -465 c268 -255 519 -494
558 -531 l72 -67 395 423 395 423 124 -114 c68 -63 133 -123 143 -133 19 -19
18 -21 -64 -112 -46 -51 -92 -102 -102 -114 -18 -20 -16 -22 120 -149 75 -71
211 -199 302 -284 90 -86 207 -196 260 -246 52 -49 129 -121 170 -161 41 -39
135 -128 209 -197 l135 -126 51 47 c28 26 140 130 248 232 l197 184 -27 27
c-16 15 -224 208 -463 429 -239 222 -460 426 -490 455 -30 29 -89 83 -130 121
-41 38 -92 86 -113 107 -22 20 -40 37 -41 37 -1 0 -46 -50 -100 -110 l-98
-110 -77 70 c-42 38 -106 98 -143 132 l-68 63 440 470 440 470 -88 90 c-49 49
-252 259 -452 465 -200 206 -400 412 -444 458 l-81 82 -430 -454 -429 -454
-134 126 -133 126 121 121 121 121 -113 109 c-62 59 -329 318 -593 574 -264
256 -521 505 -571 553 l-90 88 -225 -262z m419 61 c1 -3 -115 -120 -258 -259
l-261 -253 -61 61 -62 61 253 263 253 263 -255 -260 c-176 -179 -259 -257
-266 -250 -7 7 63 96 227 287 l237 277 95 -92 c52 -51 96 -95 98 -98z m112
-104 l95 -95 -258 -257 -257 -258 -101 100 -100 100 258 252 c142 139 260 252
263 253 3 0 48 -43 100 -95z m170 -168 l63 -59 -254 -254 c-140 -140 -259
-254 -264 -254 -6 0 -37 27 -70 60 l-60 60 255 255 c140 140 258 254 261 253
4 -2 35 -29 69 -61z m240 -231 l161 -160 -253 -253 c-139 -139 -256 -253 -260
-253 -4 0 -19 11 -35 24 l-27 24 253 263 253 264 -255 -260 -256 -260 -133
132 -133 133 255 255 c140 140 258 254 262 253 4 -2 79 -75 168 -162z m205
-196 l29 -31 -257 -257 -257 -257 -32 33 -33 32 255 255 c140 140 257 255 261
255 3 0 18 -14 34 -30z m135 -135 l95 -95 -258 -258 -257 -257 -97 98 -98 97
255 255 c140 140 257 255 260 255 3 0 48 -43 100 -95z m171 -164 l64 -60 -255
-255 c-140 -141 -258 -255 -261 -254 -3 2 -35 29 -70 61 l-63 58 254 254 c140
140 258 255 261 255 3 0 35 -27 70 -59z m102 -99 l27 -28 -258 -257 -258 -258
-29 31 -29 31 254 254 c140 140 257 255 261 255 3 0 17 -13 32 -28z m41 -543
c-16 -18 -23 -13 -151 108 -127 120 -133 127 -117 144 16 18 23 13 151 -108
127 -120 133 -127 117 -144z m1615 -506 c-20 -21 -325 -348 -679 -728 -353
-379 -657 -705 -674 -722 l-31 -33 -525 501 c-289 275 -537 512 -552 527 l-28
27 221 233 220 232 1041 0 1042 0 -35 -37z m-367 -776 c85 -79 95 -92 85 -108
-7 -11 -15 -18 -19 -17 -4 2 -70 61 -147 132 -133 123 -140 130 -125 148 19
20 1 34 206 -155z m343 83 l29 -31 -229 -232 -230 -232 235 233 236 233 29
-31 29 -31 -229 -232 -230 -232 232 230 233 230 32 -33 33 -32 -230 -233 -230
-232 235 233 236 233 29 -31 29 -31 -229 -229 c-127 -127 -233 -229 -236 -228
-3 2 -61 55 -128 118 l-121 115 116 130 c180 201 315 345 323 345 4 0 20 -14
36 -30z m277 -257 l27 -26 -226 -236 -226 -236 231 235 231 235 65 -65 66 -65
-227 -227 c-125 -126 -231 -228 -236 -228 -4 0 -51 41 -103 92 l-95 92 228
228 c125 125 230 228 232 228 3 0 17 -12 33 -27z m246 -226 l62 -62 -233 -233
-232 -232 -65 65 -65 65 230 230 c126 127 232 230 235 230 3 0 34 -28 68 -63z
m139 -129 l63 -63 -232 -235 -233 -235 237 235 238 235 65 -65 65 -65 -232
-235 -233 -235 237 235 238 235 65 -65 65 -65 -232 -235 -233 -235 237 235
238 235 65 -65 65 -65 -232 -235 -233 -235 237 235 238 235 30 -30 30 -30
-192 -180 c-106 -99 -215 -201 -243 -227 l-51 -47 -125 118 -124 118 229 239
228 239 -233 -238 -234 -238 -64 65 -64 65 227 238 228 238 -229 -235 -230
-234 -39 31 c-21 17 -68 61 -104 97 l-65 66 230 230 c126 127 232 230 235 230
2 0 33 -28 67 -62z"/>
<path d="M1360 5083 l-255 -258 258 255 c239 237 262 260 254 260 -1 0 -117
-116 -257 -257z"/>
<path d="M1500 4953 l-255 -258 258 255 c239 237 262 260 254 260 -1 0 -117
-116 -257 -257z"/>
<path d="M1570 4883 l-255 -258 258 255 c239 237 262 260 254 260 -1 0 -117
-116 -257 -257z"/>
<path d="M1700 4753 l-255 -258 258 255 c239 237 262 260 254 260 -1 0 -117
-116 -257 -257z"/>
<path d="M1840 4623 l-255 -258 258 255 c141 140 257 256 257 257 0 8 -23 -15
-260 -254z"/>
<path d="M1910 4553 l-255 -258 258 255 c141 140 257 256 257 257 0 8 -23 -15
-260 -254z"/>
<path d="M1980 4483 l-255 -258 258 255 c141 140 257 256 257 257 0 8 -23 -15
-260 -254z"/>
<path d="M2250 4223 l-255 -258 258 255 c141 140 257 256 257 257 0 8 -23 -15
-260 -254z"/>
<path d="M2320 4153 l-255 -258 258 255 c141 140 257 256 257 257 0 8 -23 -15
-260 -254z"/>
<path d="M2460 4023 l-255 -258 258 255 c141 140 257 256 257 257 0 8 -23 -15
-260 -254z"/>
<path d="M4595 1858 l-230 -233 233 230 c127 126 232 231 232 232 0 8 -21 -13
-235 -229z"/>
<path d="M4735 1728 l-230 -233 233 230 c127 126 232 231 232 232 0 8 -21 -13
-235 -229z"/>
<path d="M4875 1598 l-230 -233 233 230 c127 126 232 231 232 232 0 8 -21 -13
-235 -229z"/>
<path d="M5410 1323 c-63 -65 -167 -171 -230 -235 -63 -65 -112 -118 -109
-118 4 0 109 106 234 235 125 129 226 235 223 235 -2 0 -55 -53 -118 -117z"/>
<path d="M584 1938 c3 -29 8 -89 12 -133 9 -119 65 -335 119 -462 44 -107 139
-268 208 -357 140 -180 357 -364 547 -461 193 -100 470 -179 663 -190 l117 -7
0 80 0 80 -102 7 c-172 11 -390 66 -511 127 -32 16 -63 26 -70 22 -7 -4 -9 -3
-5 1 5 5 -20 24 -55 43 -233 129 -456 369 -590 638 -90 181 -140 361 -152 557
l-7 107 -90 0 -90 0 6 -52z m163 5 c-3 -10 -5 -4 -5 12 0 17 2 24 5 18 2 -7 2
-21 0 -30z m10 -115 c-2 -13 -4 -5 -4 17 -1 22 1 32 4 23 2 -10 2 -28 0 -40z
m32 -188 c-1 -8 -7 8 -15 35 -7 28 -13 59 -13 70 0 11 7 -5 14 -35 8 -30 14
-62 14 -70z m8 -42 c-3 -8 -6 -5 -6 6 -1 11 2 17 5 13 3 -3 4 -12 1 -19z m49
-155 c-4 -5 -34 75 -41 112 -3 17 6 -1 20 -39 14 -38 23 -71 21 -73z m177
-315 c42 -59 91 -119 166 -200 13 -16 22 -28 19 -28 -15 0 -193 214 -235 281
-43 69 -123 230 -123 247 1 4 29 -47 63 -113 34 -66 84 -150 110 -187z"/>
<path d="M894 1948 c3 -24 8 -77 12 -118 16 -195 112 -438 247 -625 109 -151
193 -235 317 -317 233 -156 431 -226 678 -243 l102 -7 0 80 0 80 -97 7 c-60 5
-137 19 -198 37 -55 17 -110 31 -122 31 -11 1 -19 5 -16 10 2 4 -1 7 -7 7 -6
0 -41 14 -78 32 -37 17 -72 32 -79 33 -6 0 -15 4 -20 9 -5 5 -2 6 7 2 8 -4 4
2 -10 13 -14 11 -30 19 -37 16 -7 -2 -15 1 -19 7 -5 7 -2 8 7 3 20 -12 5 2
-84 76 -237 195 -402 511 -423 812 l-6 97 -90 0 -90 0 6 -42z m163 0 c-3 -7
-5 -2 -5 12 0 14 2 19 5 13 2 -7 2 -19 0 -25z m10 -95 c-3 -10 -5 -4 -5 12 0
17 2 24 5 18 2 -7 2 -21 0 -30z m42 -208 c-2 -17 -38 99 -38 120 0 11 9 -9 19
-45 11 -36 19 -69 19 -75z m122 -265 c49 -77 51 -80 45 -80 -19 0 -149 245
-161 305 -4 17 13 -15 37 -70 24 -55 60 -125 79 -155z m104 -147 c27 -32 39
-49 26 -38 -24 21 -86 95 -79 95 2 0 26 -26 53 -57z m210 -206 c6 -6 -12 5
-39 24 -27 19 -52 41 -54 49 -4 12 56 -35 93 -73z"/>
<path d="M1200 1983 c1 -50 32 -244 49 -298 29 -95 113 -248 190 -345 52 -65
217 -220 235 -220 2 0 31 -15 63 -34 115 -69 280 -119 431 -131 l82 -7 0 80 0
80 -77 7 c-116 10 -198 33 -298 83 -152 76 -253 159 -337 277 -42 59 -128 228
-128 250 0 9 -4 14 -9 11 -4 -3 -6 6 -3 21 3 16 1 24 -5 20 -6 -4 -8 4 -6 21
3 18 2 23 -5 14 -5 -8 -7 8 -4 44 3 32 1 54 -4 51 -5 -3 -7 15 -5 39 l3 44
-86 0 c-47 0 -86 -3 -86 -7z m229 -333 c11 -24 11 -24 -3 -6 -9 11 -16 24 -16
30 0 12 5 7 19 -24z"/>
<path d="M1514 1953 c3 -21 9 -60 12 -88 26 -193 165 -391 351 -504 96 -57
186 -86 296 -96 l77 -7 0 80 0 80 -72 7 c-57 5 -94 17 -173 54 -113 54 -183
111 -224 182 -15 27 -31 46 -35 42 -4 -4 -4 1 0 11 5 13 4 17 -4 12 -8 -5 -10
-1 -5 10 5 13 3 15 -7 9 -8 -5 -11 -4 -7 2 8 13 -16 76 -25 67 -3 -3 -5 1 -5
8 1 7 -2 48 -7 91 l-8 77 -85 0 -85 0 6 -37z"/>
<path d="M1823 1968 c4 -13 9 -43 13 -68 9 -60 42 -124 101 -193 58 -70 155
-121 252 -132 l61 -7 0 80 0 80 -42 7 c-49 8 -108 36 -127 59 -7 9 -17 14 -21
11 -5 -3 -12 0 -17 7 -8 13 -9 18 -12 39 0 5 -5 7 -11 4 -6 -4 -7 1 -3 11 4
11 2 15 -4 11 -6 -4 -10 -1 -10 6 1 6 -2 33 -6 60 l-8 47 -86 0 c-83 0 -85 0
-80 -22z"/>
<path d="M2130 1983 c0 -3 11 -25 24 -48 18 -29 35 -44 60 -52 l36 -11 0 59 0
59 -60 0 c-33 0 -60 -3 -60 -7z"/>
</g>
</svg>
